<svg width="467" height="114" viewBox="0 0 467 114" fill="none" xmlns="http://www.w3.org/2000/svg">
<rect width="466.944" height="114" rx="13" fill="#B3B3B3"/>
<rect x="7" y="7" width="452" height="100" rx="6" fill="#4A4A4A"/>
<path d="M98.125 44.125V34.3125H136.562V80.0625H98.125V70.25H126.375V44.125H98.125ZM145.375 43.4375V33.6875H164.875V43.4375H145.375ZM186.938 44.1875C184.854 51.8125 182.062 58.0208 178.562 62.8125C175.062 67.6042 171.417 71.3125 167.625 73.9375C163.875 76.5208 160.312 78.3542 156.938 79.4375C153.562 80.5208 150.792 81.1458 148.625 81.3125C146.5 81.5208 145.417 81.6042 145.375 81.5625V71.375C145.417 71.4167 146.271 71.3958 147.938 71.3125C149.604 71.1875 151.729 70.75 154.312 70C156.938 69.25 159.688 67.8125 162.562 65.6875C165.438 63.5625 168.083 60.875 170.5 57.625C172.958 54.3333 175.125 49.8542 177 44.1875H186.938ZM193.5 43.4375V33.4375H231.812V42.625C231.729 48.75 230.771 54.0208 228.938 58.4375C227.104 62.8542 224.917 66.5 222.375 69.375C219.833 72.2083 217.146 74.4167 214.312 76C211.479 77.5833 208.792 78.7917 206.25 79.625C203.708 80.4167 201.625 80.9167 200 81.125C198.417 81.375 197.604 81.4792 197.562 81.4375V71.4375C200.896 70.9375 203.792 70.2292 206.25 69.3125C208.708 68.3542 211.146 66.8542 213.562 64.8125C216.021 62.7708 218.021 60.0417 219.562 56.625C221.104 53.1667 221.979 48.7708 222.188 43.4375H193.5ZM274.812 40.1875C273.354 43.2708 271.542 46.1875 269.375 48.9375C267.25 51.6458 265.292 54 263.5 56V83.9375H255.125V62.5C252.417 64.6667 249.792 66.4167 247.25 67.75C244.75 69.0417 242.75 69.9583 241.25 70.5C239.75 71 239 71.25 239 71.25V62.6875C239 62.6875 239.875 62.3333 241.625 61.625C243.417 60.875 245.688 59.6667 248.438 58C251.188 56.3333 254.042 54.0417 257 51.125C260 48.1667 262.75 44.5208 265.25 40.1875H274.812ZM308.125 34.5V25.5H312.438V34.5H308.125ZM314.875 34.5V25.5H319.188V34.5H314.875ZM299.812 30.625C299.646 31.7917 299.438 32.9167 299.188 34C298.938 35.0833 298.688 36.125 298.438 37.125H319V46.6875C318.542 52.1042 317.354 56.8958 315.438 61.0625C313.521 65.1875 311.208 68.5833 308.5 71.25C305.833 73.9167 303.083 76.0625 300.25 77.6875C297.458 79.3125 294.833 80.6042 292.375 81.5625C289.958 82.5208 287.979 83.1667 286.438 83.5C284.896 83.875 284.104 84.0417 284.062 84V73.875C284.104 73.9167 284.917 73.7292 286.5 73.3125C288.125 72.8542 290.104 72.0625 292.438 70.9375C294.771 69.8125 297.208 68.1042 299.75 65.8125C302.292 63.5208 304.333 60.875 305.875 57.875C307.458 54.875 308.521 51.0625 309.062 46.4375H294.625C292.208 50.1875 289.854 53.2292 287.562 55.5625C285.271 57.8958 283.354 59.6042 281.812 60.6875C280.312 61.7708 279.521 62.2917 279.438 62.25V50.1875C279.479 50.1875 279.938 49.8125 280.812 49.0625C281.729 48.2708 282.771 47.0208 283.938 45.3125C285.104 43.6042 286.229 41.5833 287.312 39.25C288.438 36.875 289.312 34 289.938 30.625H299.812ZM330.812 33.5H360.312V42.25L349.188 50.4375C352.979 49.6875 356.104 49.8958 358.562 51.0625C361.062 52.1875 363 53.9792 364.375 56.4375C365.75 58.8958 366.479 61.7708 366.562 65.0625C366.604 68.6042 365.771 71.7083 364.062 74.375C362.396 77 360.208 78.9583 357.5 80.25C354.833 81.5833 351.958 82.4167 348.875 82.75C345.833 83.0833 342.854 82.8333 339.938 82C337.479 81.2917 335.583 80.1458 334.25 78.5625C332.958 76.9792 332.292 74.9583 332.25 72.5C332.208 70.9583 332.562 69.3125 333.312 67.5625C334.104 65.8125 335.396 64.4792 337.188 63.5625C338.979 62.6458 341.417 62.4167 344.5 62.875C347.208 63.375 349.375 64.3958 351 65.9375C352.625 67.4792 353.917 69.3958 354.875 71.6875C355.792 70.7708 356.438 69.75 356.812 68.625C357.188 67.5 357.354 66.2708 357.312 64.9375C357.312 62.7708 356.562 61.1042 355.062 59.9375C353.604 58.7292 351.188 58.1667 347.812 58.25C344.521 58.375 341.792 58.9583 339.625 60C337.5 61 335.562 62.25 333.812 63.75L326.438 69.875V58L345.938 43.25H330.812V33.5ZM342.812 69C341.604 68.9583 340.771 69.3333 340.312 70.125C339.854 70.9167 339.833 71.7917 340.25 72.75C340.667 73.6667 341.583 74.3542 343 74.8125C344.458 75.1875 345.708 75.3125 346.75 75.1875C347.833 75.0625 348.396 74.9792 348.438 74.9375C348.229 73.4792 347.562 72.1875 346.438 71.0625C345.354 69.8958 344.146 69.2083 342.812 69Z" fill="white"/>
</svg>
