<svg width="165" height="337" viewBox="0 0 165 337" fill="none" xmlns="http://www.w3.org/2000/svg">
<mask id="path-1-inside-1_16_28" fill="white">
<path fill-rule="evenodd" clip-rule="evenodd" d="M111 42V238H53V42V39H53.0728C54.135 17.2042 66.6802 0 82 0C97.3198 0 109.865 17.2042 110.927 39H111V42Z"/>
</mask>
<path fill-rule="evenodd" clip-rule="evenodd" d="M111 42V238H53V42V39H53.0728C54.135 17.2042 66.6802 0 82 0C97.3198 0 109.865 17.2042 110.927 39H111V42Z" fill="#19B100"/>
<path d="M111 238V239H112V238H111ZM53 238H52V239H53V238ZM53 39V38H52V39H53ZM53.0728 39V40H54.0253L54.0717 39.0487L53.0728 39ZM110.927 39L109.928 39.0487L109.975 40H110.927V39ZM111 39H112V38H111V39ZM110 42V238H112V42H110ZM111 237H53V239H111V237ZM54 238V42H52V238H54ZM54 42V39H52V42H54ZM53 40H53.0728V38H53V40ZM54.0717 39.0487C54.5945 28.3198 57.9429 18.7662 62.9945 11.9203C68.0471 5.07291 74.7428 1 82 1V-1C73.9374 -1 66.7006 3.52918 61.3851 10.7328C56.0686 17.938 52.6133 27.8844 52.074 38.9513L54.0717 39.0487ZM82 1C89.2572 1 95.9529 5.07291 101.006 11.9203C106.057 18.7662 109.406 28.3198 109.928 39.0487L111.926 38.9513C111.387 27.8844 107.931 17.938 102.615 10.7328C97.2994 3.52918 90.0626 -1 82 -1V1ZM110.927 40H111V38H110.927V40ZM110 39V42H112V39H110Z" fill="#5B5B5B" mask="url(#path-1-inside-1_16_28)"/>
<rect x="52.5" y="194.5" width="59" height="3" fill="#19B100" stroke="#5B5B5B"/>
<rect x="52.5" y="104.5" width="59" height="3" fill="#19B100" stroke="#5B5B5B"/>
<mask id="path-5-inside-2_16_28" fill="white">
<path fill-rule="evenodd" clip-rule="evenodd" d="M74 114V238H16V114C16 90.804 28.9837 72 45 72C61.0163 72 74 90.804 74 114Z"/>
</mask>
<path fill-rule="evenodd" clip-rule="evenodd" d="M74 114V238H16V114C16 90.804 28.9837 72 45 72C61.0163 72 74 90.804 74 114Z" fill="#19B100"/>
<path d="M74 238V239H75V238H74ZM16 238H15V239H16V238ZM73 114V238H75V114H73ZM74 237H16V239H74V237ZM17 238V114H15V238H17ZM17 114C17 102.579 20.198 92.2831 25.3168 84.8697C30.4384 77.4522 37.414 73 45 73V71C36.5697 71 29.0453 75.9498 23.671 83.7333C18.2938 91.521 15 102.225 15 114H17ZM45 73C52.586 73 59.5616 77.4522 64.6832 84.8697C69.802 92.2831 73 102.579 73 114H75C75 102.225 71.7062 91.521 66.329 83.7333C60.9547 75.9498 53.4303 71 45 71V73Z" fill="#5B5B5B" mask="url(#path-5-inside-2_16_28)"/>
<mask id="path-7-inside-3_16_28" fill="white">
<path fill-rule="evenodd" clip-rule="evenodd" d="M149 114V238H91V114C91 90.804 103.984 72 120 72C136.016 72 149 90.804 149 114Z"/>
</mask>
<path fill-rule="evenodd" clip-rule="evenodd" d="M149 114V238H91V114C91 90.804 103.984 72 120 72C136.016 72 149 90.804 149 114Z" fill="#19B100"/>
<path d="M149 238V239H150V238H149ZM91 238H90V239H91V238ZM148 114V238H150V114H148ZM149 237H91V239H149V237ZM92 238V114H90V238H92ZM92 114C92 102.579 95.198 92.2831 100.317 84.8697C105.438 77.4522 112.414 73 120 73V71C111.57 71 104.045 75.9498 98.671 83.7333C93.2938 91.521 90 102.225 90 114H92ZM120 73C127.586 73 134.562 77.4522 139.683 84.8697C144.802 92.2831 148 102.579 148 114H150C150 102.225 146.706 91.521 141.329 83.7333C135.955 75.9498 128.43 71 120 71V73Z" fill="#5B5B5B" mask="url(#path-7-inside-3_16_28)"/>
<rect x="90.5" y="174.5" width="59" height="3" fill="#19B100" stroke="#5B5B5B"/>
<rect x="15.5" y="174.5" width="59" height="3" fill="#19B100" stroke="#5B5B5B"/>
<path d="M73.5 114C73.5 125.509 70.278 135.907 65.0946 143.414C59.9099 150.923 52.7971 155.5 45 155.5C37.2029 155.5 30.0901 150.923 24.9054 143.414C19.722 135.907 16.5 125.509 16.5 114C16.5 102.491 19.722 92.0926 24.9054 84.5856C30.0901 77.0766 37.2029 72.5 45 72.5C52.7971 72.5 59.9099 77.0766 65.0946 84.5856C70.278 92.0926 73.5 102.491 73.5 114Z" fill="#FFF1CD" stroke="#5B5B5B"/>
<path d="M148.5 114C148.5 125.509 145.278 135.907 140.095 143.414C134.91 150.923 127.797 155.5 120 155.5C112.203 155.5 105.09 150.923 99.9054 143.414C94.722 135.907 91.5 125.509 91.5 114C91.5 102.491 94.722 92.0926 99.9054 84.5856C105.09 77.0766 112.203 72.5 120 72.5C127.797 72.5 134.91 77.0766 140.095 84.5856C145.278 92.0926 148.5 102.491 148.5 114Z" fill="#FFF1CD" stroke="#5B5B5B"/>
<path d="M110.5 42C110.5 53.5094 107.278 63.9074 102.095 71.4144C96.9099 78.9234 89.7971 83.5 82 83.5C74.2029 83.5 67.0901 78.9234 61.9054 71.4144C56.722 63.9074 53.5 53.5094 53.5 42C53.5 30.4906 56.722 20.0926 61.9054 12.5856C67.0901 5.07662 74.2029 0.5 82 0.5C89.7971 0.5 96.9099 5.07662 102.095 12.5856C107.278 20.0926 110.5 30.4906 110.5 42Z" fill="#FFF1CD" stroke="#5B5B5B"/>
<path d="M138.5 114C138.5 121.645 136.396 128.544 133.021 133.518C129.644 138.495 125.032 141.5 120 141.5C114.968 141.5 110.356 138.495 106.979 133.518C103.604 128.544 101.5 121.645 101.5 114C101.5 106.355 103.604 99.4555 106.979 94.4818C110.356 89.5053 114.968 86.5 120 86.5C125.032 86.5 129.644 89.5053 133.021 94.4818C136.396 99.4555 138.5 106.355 138.5 114Z" fill="#DCCFAC" stroke="#5B5B5B"/>
<path d="M100.5 42C100.5 49.6452 98.3963 56.5445 95.0213 61.5182C91.6444 66.4947 87.0316 69.5 82 69.5C76.9684 69.5 72.3556 66.4947 68.9787 61.5182C65.6037 56.5445 63.5 49.6452 63.5 42C63.5 34.3548 65.6037 27.4555 68.9787 22.4818C72.3556 17.5053 76.9684 14.5 82 14.5C87.0316 14.5 91.6444 17.5053 95.0213 22.4818C98.3963 27.4555 100.5 34.3548 100.5 42Z" fill="#DCCFAC" stroke="#5B5B5B"/>
<path d="M63.5 114C63.5 121.645 61.3963 128.544 58.0213 133.518C54.6444 138.495 50.0316 141.5 45 141.5C39.9684 141.5 35.3556 138.495 31.9787 133.518C28.6037 128.544 26.5 121.645 26.5 114C26.5 106.355 28.6037 99.4555 31.9787 94.4818C35.3556 89.5053 39.9684 86.5 45 86.5C50.0316 86.5 54.6444 89.5053 58.0213 94.4818C61.3963 99.4555 63.5 106.355 63.5 114Z" fill="#DCCFAC" stroke="#5B5B5B"/>
<rect x="0.5" y="218.5" width="164" height="117" fill="#F7DB94" stroke="#5B5B5B"/>
<rect x="0.5" y="253.5" width="164" height="21" fill="#CDA641" stroke="#5B5B5B"/>
<rect x="0.5" y="315.5" width="164" height="21" fill="#CDA641" stroke="#5B5B5B"/>
</svg>
