<svg width="506" height="196" viewBox="0 0 506 196" fill="none" xmlns="http://www.w3.org/2000/svg">
<path fill-rule="evenodd" clip-rule="evenodd" d="M273.499 24L255 17.8597V15H246.385L213.245 4L212.691 5.66878L211.61 4L197.723 13H194H193H160V11H156V9H140V5H101V11H95V13H70V10H45V11.6025L44.6095 11L15 30.1902L16.173 32H14V45H8V46H5V90H8V91V93V122H5V163H9V168H12V173H16V178H21V180H22V182H25V185H28V187H45V188H70V191H95V193H155.948L156.006 193.345L158.045 193H160V192.669L189.439 187.682L188.816 184H193H194H217V186H241V188H279V186.28L302.384 179H306V177.874L322.71 172.672L324.351 177.943L343.439 172H344V171.825L350.914 169.673L379.968 167.969L379.794 165H382V163H406.261L406 163.452L408 164.607V167H412.142L421 172.117V173H422.528L425.916 174.957L427.046 173H441.407L441.767 173.946L454.743 169H460V166.996L463.259 165.754L462.59 164H470V163H473V159H481V155.008L484.453 153H489V150.355L494.77 147H497V142H500V89H502V70H500V69H497V65H489V43H481V35H473V32H470V31H460V27H447.125L430.366 26L430.247 28H408V32H382V20H375.603L375.912 17.877L326.528 10.6925L326.191 9.99999L325.173 10.4954L321.768 10L321.431 12.318L295.389 25H279V24H273.499Z" fill="#8D4400"/>
<path d="M15.9019 29.3898C18.8335 28.3428 22.026 25.7461 24.7716 24.1486C28.928 21.7303 31.8663 18.3109 35.2065 14.9706C36.9418 13.2354 39.9194 12.0165 42.3687 11.8876C48.8476 11.5466 55.0856 9.75317 61.6259 9.75317C64.7156 9.75317 66.0844 9.97175 68.9303 11.271C79.3171 16.0128 90.1393 14.4076 99.7608 8.73339C103.796 6.35389 107.103 4.26549 111.737 3.56335C114.739 3.10854 117.957 3.27212 120.963 3.53964C126.404 4.02398 131.862 4.16553 137.137 5.48433C140.155 6.23892 143.149 7.45902 146.244 7.80848C148.567 8.07082 152.02 7.26376 154.212 8.1405C155.411 8.61995 156.864 8.56501 158.007 9.13656C158.563 9.41449 158.429 9.89376 158.529 10.4172C158.845 12.0805 161.364 12.5686 162.702 12.9785C167.348 14.4015 172.947 14.315 177.738 14.4252C182.764 14.5407 188.03 14.7884 193.011 14.022C198.242 13.2172 201.513 9.10746 206.126 6.95471C209.703 5.28545 213.379 3.81272 217.083 5.55548C226.164 9.82906 234.717 12.6992 244.617 14.5912C252.191 16.0387 259.457 18.1235 266.672 20.6624C269.116 21.5223 271.439 22.3117 273.811 23.3897C280.819 26.5754 287.766 26.3681 294.965 24.0775C300.581 22.2907 306.258 20.646 311.638 18.196C314.218 17.0206 316.312 15.1739 318.776 13.856C320.759 12.7954 321.384 11.1426 322.926 9.94289C323.594 9.4238 326.532 10.3432 327.195 10.4172C331.519 10.9005 335.857 11.4789 340.191 11.8402C348.651 12.5451 357.597 12.4968 365.496 15.7058C369.413 17.297 373.182 18.0352 377.188 19.1446C379.497 19.784 379.998 21.1282 380.034 23.2712C380.109 27.7811 382.736 31.9539 387.528 32.2832C392.849 32.6487 399.186 31.9454 404.39 30.8365C407.638 30.1443 410.653 28.4107 413.947 27.7772C422.627 26.1081 431.918 25.4398 440.77 25.1447C446.91 24.94 451.316 25.6593 457.063 27.8246C464.086 30.4709 471.308 31.7544 478.004 35.2476C478.966 35.7499 480.938 36.3177 479.237 37.0737C476.086 38.474 483.544 41.7543 484.858 42.4335C488.147 44.1352 490.193 45.6454 490.597 49.4771C490.912 52.4689 492.451 55.9044 490.81 58.8211C488.907 62.2052 489.214 62.833 493.158 65.1532C495.794 66.7039 499.735 68.3168 501.269 71.1296C503.061 74.4152 502.864 79.2096 502.36 82.7977C502.047 85.0261 500.872 87.6976 499.538 89.533C498.091 91.5215 498.249 92.5585 498.708 95.0825C500.689 105.98 500.514 116.728 501.055 127.763C501.286 132.461 501.782 137.508 499.988 141.992C498.962 144.557 495.901 145.375 493.727 146.641C491.571 147.896 491.035 150.824 489.008 151.882C486.977 152.942 485.364 152.457 483.672 154.467C481.895 156.577 479.693 158.01 477.245 159.234C472.311 161.701 467.516 164.402 462.517 166.752C453.177 171.141 443.476 175.382 432.967 174.862C429.788 174.705 426.492 174.61 423.434 173.629C418.172 171.942 413.386 168.883 408.54 166.301C405.417 164.637 402.12 162.819 398.532 162.483C395.434 162.192 392.388 162.783 389.307 162.957C384.284 163.24 382.04 164.505 378.231 167.7C373.552 171.626 367.347 170.688 361.63 170.688C355.199 170.688 349.031 170.897 342.705 172.206C337.557 173.271 332.873 175.154 328.001 177.068C324.908 178.283 323.051 177.959 321.503 174.91C321.403 174.712 321 173.078 320.697 173.013C320.15 172.894 318.383 173.767 318.373 173.771C315.526 175.025 312.756 176.442 309.883 177.637C302.18 180.841 293.932 182.471 285.882 184.538C277.195 186.77 268.948 189.129 259.985 189.898C251.979 190.586 245.119 189.245 237.336 187.55C229.356 185.813 222.095 184.317 213.976 185.013C210.597 185.302 207.239 185.526 203.873 185.961C201.594 186.256 199.256 186.543 197.019 185.819C194.555 185.022 195.594 183.108 192.679 184.538C186.509 187.567 180.306 191.196 173.398 192.199C169.839 192.715 165.843 192.854 162.228 192.886C153.321 192.965 144.408 192.886 135.501 192.886C131.251 192.886 126.914 192.596 122.67 192.365C119.525 192.193 116.144 192.301 113.042 191.795C105.556 190.577 97.9812 191.952 90.3694 191.416C82.7916 190.882 75.1603 190.641 67.6022 189.993C59.9672 189.339 52.4359 188.618 44.6928 188.618C41.0347 188.618 37.4981 189.044 33.8547 189.044C31.5047 189.044 29.6174 189.226 27.6175 187.764C25.5981 186.287 24.4131 184.085 22.7557 182.262C19.2546 178.41 14.5936 177.667 14.218 171.471C14.0866 169.302 14.3284 173.43 13.1508 172.538C11.5792 171.348 10.1361 168.976 9.40375 167.178C8.95277 166.072 7.86165 165.28 7.38791 164.095C6.62827 162.196 6.11946 160.494 5.65665 158.498C4.7033 154.387 5.2331 149.808 4.89775 145.597C4.6287 142.219 3.82777 139.08 3.33251 135.755C2.9773 133.37 2.24781 128.972 3.28508 126.624C3.99278 125.023 5.49334 123.543 6.36813 121.952C7.11663 120.592 8.64484 119.856 8.64484 118.395C8.64484 113.929 8.64484 109.462 8.64484 104.996C8.64484 101.801 8.94453 98.439 8.45512 95.2722C7.88771 91.6008 5.51257 88.9942 4.61316 85.5251C4.18481 83.8729 4.41931 82.1151 4.376 80.4262C4.32583 78.4694 3.722 76.576 3.54595 74.6395C2.93334 67.9008 3.52223 60.922 3.52223 54.1491C3.52223 53.3263 3.17918 51.3971 3.75939 50.734C4.6006 49.7726 5.71522 49.2357 6.51042 48.2676C9.236 44.9495 14.6212 42.9421 14.6212 38.1409C14.6212 35.7914 14.0282 32.2833 15.0481 30.2436" stroke="black" stroke-width="5" stroke-linecap="round"/>
<path d="M385.393 73.8333C385.893 74 386.976 75 388.643 76.8333L391.893 76.3333C395.393 75.6666 399.143 75.3333 403.143 75.3333C406.643 75.3333 409.226 75.75 410.893 76.5833C412.56 77.4166 413.393 78.1666 413.393 78.8333C413.226 79.5 412.643 80 411.643 80.3333C408.31 81.6666 405.31 83 402.643 84.3333C404.976 85.1666 405.81 86.0833 405.143 87.0833C405.476 87.75 403.976 88.3333 400.643 88.8333C400.476 89.1666 400.31 89.5833 400.143 90.0833L402.143 90.3333C404.976 90.5 407.81 91.9166 410.643 94.5833C410.143 97.9166 409.393 100.5 408.393 102.333C407.393 104.167 406.476 105 405.643 104.833C404.31 104.833 403.143 104.75 402.143 104.583C401.476 105.25 400.893 105.917 400.393 106.583C401.56 106.75 402.726 106.833 403.893 106.833L407.643 106.583C408.643 106.583 409.81 106.667 411.143 106.833C412.476 107 413.643 107.333 414.643 107.833C417.476 109.167 417.393 110.333 414.393 111.333C412.893 111.667 411.726 111.75 410.893 111.583C408.893 111.25 406.81 111.083 404.643 111.083H400.143C400.31 112.583 400.393 114 400.393 115.333C400.56 117 400.31 118.667 399.643 120.333C405.81 120.167 412.476 120.667 419.643 121.833C420.143 122.5 420.226 122.917 419.893 123.083C417.226 124.917 411.143 126.167 401.643 126.833C398.476 126.833 395.726 125.917 393.393 124.083C386.56 119.917 379.726 117.917 372.893 118.083L369.393 120.583C368.393 121.417 367.643 121.583 367.143 121.083C366.143 120.083 365.31 118.75 364.643 117.083C365.643 115.25 366.81 114.333 368.143 114.333C368.976 114.333 369.56 114.25 369.893 114.083L374.393 109.583L374.643 108.083C372.643 107.25 371.143 106 370.143 104.333V100.333C368.643 99.3333 367.643 98.25 367.143 97.0833C366.643 96.4166 366.893 95.5833 367.893 94.5833C369.226 92.0833 370.31 90 371.143 88.3333L371.393 88.5833C371.226 89.25 371.143 90.1666 371.143 91.3333C371.143 92.6666 371.143 93.5833 371.143 94.0833C371.643 94.5833 372.56 95.0833 373.893 95.5833C374.893 96.0833 375.31 96.6666 375.143 97.3333C374.81 98.6666 374.393 99.9166 373.893 101.083C373.893 102.25 374.06 103.333 374.393 104.333C376.893 105 378.81 106 380.143 107.333C379.81 109.167 378.476 111.333 376.143 113.833C377.476 114 378.893 114.333 380.393 114.833C382.393 115.333 384.143 115.75 385.643 116.083C389.643 117.083 393.56 118.417 397.393 120.083C396.726 119.583 396.06 118.833 395.393 117.833C394.893 114.833 394.81 112.667 395.143 111.333C389.643 112.333 385.976 113 384.143 113.333C383.31 113.167 382.726 112.917 382.393 112.583C382.06 112.25 381.893 111.583 381.893 110.583C382.393 110.083 383.31 109.833 384.643 109.833C387.143 109.333 390.06 108 393.393 105.833C393.726 105.5 393.81 105.25 393.643 105.083C392.81 105.083 391.81 104.833 390.643 104.333C387.81 103.5 385.976 101.083 385.143 97.0833C384.643 94.5833 384.476 92.8333 384.643 91.8333C384.976 91.1666 385.31 91 385.643 91.3333L386.893 92.3333C386.56 93.3333 387.06 94 388.393 94.3333C389.893 93 392.393 92 395.893 91.3333C396.226 91 396.31 90.4166 396.143 89.5833C393.31 89.0833 391.476 88.3333 390.643 87.3333C389.976 86.6666 389.726 86.0833 389.893 85.5833C392.226 85.5833 394.31 85.25 396.143 84.5833C396.31 83.0833 395.81 81.75 394.643 80.5833C395.643 79.9166 396.726 79.6666 397.893 79.8333C399.06 80.5 399.976 81.25 400.643 82.0833C402.143 80.9166 403.143 79.75 403.643 78.5833C400.143 78.25 396.226 78.4166 391.893 79.0833L390.143 80.3333C390.31 81.5 389.976 82.9166 389.143 84.5833C388.476 85.5833 387.643 86 386.643 85.8333C385.143 85.6666 384.226 84.0833 383.893 81.0833C384.56 79.75 384.976 78.3333 385.143 76.8333L384.643 73.5833L385.393 73.8333ZM369.143 76.5833C369.31 76.5833 370.226 76.8333 371.893 77.3333C373.393 77.8333 374.893 79 376.393 80.8333C376.56 82.1666 375.81 83 374.143 83.3333C373.31 85 372.643 86 372.143 86.3333L371.643 85.5833C371.476 84.4166 371.476 83.5 371.643 82.8333C370.643 81.8333 369.56 81 368.393 80.3333C367.56 78.6666 367.31 77.6666 367.643 77.3333C368.31 76.8333 368.81 76.5833 369.143 76.5833ZM399.643 93.0833C399.476 93.5833 399.476 94.1666 399.643 94.8333C401.643 95 402.476 95.5833 402.143 96.5833C401.476 97.25 400.726 97.75 399.893 98.0833L400.143 101.083H402.393C403.56 98.9166 404.31 96.25 404.643 93.0833C403.476 92.5833 401.81 92.5833 399.643 93.0833ZM396.143 93.8333C394.31 93.6666 392.476 93.75 390.643 94.0833C390.143 94.4166 389.726 94.9166 389.393 95.5833L390.393 97.0833C391.393 96.5833 392.726 96.1666 394.393 95.8333L396.143 95.3333C396.143 94.8333 396.143 94.3333 396.143 93.8333ZM391.143 99.0833C391.643 100.583 392.06 101.5 392.393 101.833L395.393 101.583V100.083C392.393 101.25 392.393 100.917 395.393 99.0833C393.393 99.4166 391.976 99.4166 391.143 99.0833Z" fill="white"/>
<path d="M432.903 75.0833C433.236 75.0833 433.82 75.1666 434.653 75.3333C435.82 75.3333 436.82 75.75 437.653 76.5833C437.986 77.25 438.153 78.25 438.153 79.5833C438.986 79.75 439.653 80.0833 440.153 80.5833C440.32 81.0833 440.32 81.5833 440.153 82.0833C439.653 82.75 438.653 83.25 437.153 83.5833C437.153 83.9166 437.153 84.3333 437.153 84.8333C438.486 84.6666 440.153 84.8333 442.153 85.3333C442.653 85.3333 443.07 85.5 443.403 85.8333C443.403 86.8333 442.07 87.5 439.403 87.8333C440.07 88.3333 440.236 89.4166 439.903 91.0833C439.236 91.75 438.153 92.75 436.653 94.0833C437.486 94.0833 438.236 94.25 438.903 94.5833C439.736 94.9166 439.82 95.3333 439.153 95.8333C437.986 96.8333 436.82 97.8333 435.653 98.8333C438.153 97.6666 440.32 96.25 442.153 94.5833C442.153 95.0833 442.153 95.5833 442.153 96.0833C442.986 95.5833 443.57 95.0833 443.903 94.5833C442.236 93.5833 441.07 92.9166 440.403 92.5833C442.403 92.25 444.153 92.1666 445.653 92.3333C446.32 91.3333 446.903 90.25 447.403 89.0833C446.07 89.75 444.82 90.1666 443.653 90.3333C442.82 90.3333 441.903 90.0833 440.903 89.5833C442.236 88.75 443.32 88.0833 444.153 87.5833C445.486 86.75 446.986 85.9166 448.653 85.0833C449.32 81.75 449.32 79.6666 448.653 78.8333H446.403C444.57 78.5 444.903 77.6666 447.403 76.3333C448.57 75.8333 449.57 75.6666 450.403 75.8333C452.403 76.3333 453.57 77.1666 453.903 78.3333C454.07 79.8333 453.903 81.5 453.403 83.3333C454.236 83 454.903 82.6666 455.403 82.3333C456.07 81.5 456.903 81.3333 457.903 81.8333C460.236 82.6666 461.403 83.6666 461.403 84.8333C459.403 88.1666 458.486 90.3333 458.653 91.3333C458.153 92 457.986 93.0833 458.153 94.5833C458.153 95.4166 458.32 96.0833 458.653 96.5833C459.32 97.4166 460.153 98 461.153 98.3333L463.653 98.5833C464.653 98.4166 465.07 97.9166 464.903 97.0833C464.57 95.9166 463.07 94.5833 460.403 93.0833C461.07 92.9166 461.653 92.9166 462.153 93.0833C466.82 94.25 469.82 96.25 471.153 99.0833C471.32 99.75 471.236 100.333 470.903 100.833C469.736 101.333 468.57 101.667 467.403 101.833C466.236 102 464.653 102.083 462.653 102.083C460.32 101.917 458.486 101.417 457.153 100.583C454.986 98.9166 453.986 96.5833 454.153 93.5833C454.153 91.9166 454.32 90.5 454.653 89.3333C454.82 88.1666 454.986 87.4166 455.153 87.0833L454.903 85.8333C454.236 86.1666 453.57 86.4166 452.903 86.5833C451.57 89.5833 450.236 91.8333 448.903 93.3333C450.236 93.8333 451.236 94.3333 451.903 94.8333C452.57 95.8333 452.653 96.6666 452.153 97.3333C451.486 98.1666 450.236 99.0833 448.403 100.083C449.236 100.417 449.82 100.917 450.153 101.583C455.653 102.917 458.57 105.167 458.903 108.333C458.403 111 457.153 114.167 455.153 117.833C452.986 121 449.736 123.917 445.403 126.583C444.57 127.25 443.653 127.25 442.653 126.583C441.32 125.583 440.403 124.75 439.903 124.083C439.236 123.417 438.653 122.167 438.153 120.333C437.82 118.667 437.486 117.667 437.153 117.333C434.653 118.833 432.82 119.75 431.653 120.083C430.32 120.417 428.903 120.583 427.403 120.583C426.236 120.583 425.153 120.5 424.153 120.333C423.153 120.667 423.153 120.5 424.153 119.833C429.486 117.833 434.486 113.917 439.153 108.083C437.653 108.75 436.07 109.25 434.403 109.583C432.403 109.583 431.236 108.583 430.903 106.583C431.07 105.917 431.486 105.583 432.153 105.583C435.653 105.25 438.986 104 442.153 101.833L440.403 103.833C441.236 103.333 441.986 103.083 442.653 103.083L443.403 102.083C443.57 101.417 443.403 101 442.903 100.833C441.903 100.5 440.986 100.333 440.153 100.333L438.403 100.583C436.736 101.417 434.57 102.5 431.903 103.833C429.236 105.167 427.653 105.75 427.153 105.583C424.653 103.917 424.486 102.583 426.653 101.583C427.486 101.25 428.403 100.833 429.403 100.333C427.57 99.6666 426.57 98.8333 426.403 97.8333C427.403 96.5 428.653 95.5833 430.153 95.0833C430.653 94.9166 431.153 94.75 431.653 94.5833C431.32 93.25 431.236 92 431.403 90.8333C432.07 90.6666 433.07 90.8333 434.403 91.3333C435.403 90.5 436.07 89.5 436.403 88.3333L433.903 88.8333C432.07 89.5 429.903 90.1666 427.403 90.8333L429.403 91.5833C429.903 91.5833 430.403 92.25 430.903 93.5833C430.736 93.75 430.486 94 430.153 94.3333C428.986 94.3333 427.57 93.4166 425.903 91.5833C423.903 91.9166 422.153 92.1666 420.653 92.3333C418.82 92 417.903 91.1666 417.903 89.8333C417.903 89.3333 418.236 88.5 418.903 87.3333C418.903 88.3333 419.236 89 419.903 89.3333C424.07 88.6666 428.153 87.5833 432.153 86.0833V85.0833C429.82 84.5833 428.153 83.75 427.153 82.5833C426.486 81.5833 426.07 80.75 425.903 80.0833C426.903 80.5833 427.986 80.9166 429.153 81.0833C430.486 81.0833 431.82 80.8333 433.153 80.3333C433.32 79.6666 433.403 78.75 433.403 77.5833C433.236 77.25 432.486 76.75 431.153 76.0833C431.153 75.4166 431.736 75.0833 432.903 75.0833ZM447.153 95.8333C446.653 96.6666 445.903 97.4166 444.903 98.0833C445.736 98.25 446.403 98.5 446.903 98.8333C447.903 97.8333 448.32 97.0833 448.153 96.5833C447.82 96.25 447.486 96 447.153 95.8333ZM431.903 96.5833C430.903 96.9166 429.903 97.4166 428.903 98.0833C429.236 98.4166 429.903 98.75 430.903 99.0833C431.403 98.25 431.736 97.4166 431.903 96.5833ZM448.653 104.833C443.32 110.833 439.653 114.75 437.653 116.583C438.32 117.583 439.153 118.417 440.153 119.083C440.653 119.417 441.403 119.583 442.403 119.583C444.403 119.583 446.57 118.167 448.903 115.333C451.07 112.5 452.32 109.5 452.653 106.333C451.82 105.333 450.486 104.833 448.653 104.833Z" fill="white"/>
<path d="M345.492 91.3646C350.596 90.6354 354.398 91.8854 356.898 95.1146C358.669 97.6146 359.502 100.115 359.398 102.615C359.294 105.115 358.304 107.094 356.429 108.552C354.554 109.906 352.419 110.792 350.023 111.208C349.085 111.208 349.085 111.052 350.023 110.74C353.565 108.552 355.387 105.219 355.492 100.74C355.492 98.8646 355.023 97.0937 354.085 95.4271C353.044 93.6562 351.221 92.7708 348.617 92.7708L347.367 92.9271C348.304 93.7604 348.825 94.8021 348.929 96.0521C348.929 96.2604 348.617 97.1979 347.992 98.8646C347.367 100.531 346.012 102.146 343.929 103.708L342.992 104.333C341.012 106.312 339.19 107.719 337.523 108.552C337.21 108.865 336.898 108.76 336.585 108.24C336.169 107.719 335.856 106 335.648 103.083C335.544 100.479 335.335 98.6562 335.023 97.6146C334.919 96.9896 335.075 96.5208 335.492 96.2083C338.304 93.7083 341.377 92.1458 344.71 91.5208C344.502 91.4166 344.346 91.2604 344.242 91.0521C344.867 91.0521 345.283 91.1562 345.492 91.3646ZM345.648 93.0833C343.877 93.6041 342.523 94.2291 341.585 94.9583C340.856 95.6875 340.075 96.2083 339.242 96.5208C338.2 96.8333 337.315 97.0416 336.585 97.1458C337.002 99.3333 337.315 101.417 337.523 103.396C337.523 103.708 337.783 104.073 338.304 104.49L338.773 104.333C342.94 100.271 345.231 97.1458 345.648 94.9583C345.856 94.3333 345.856 93.7083 345.648 93.0833Z" fill="white"/>
<path d="M252.393 76.5833C253.56 76.9167 254.81 77.5 256.143 78.3333C258.976 80.1667 259.226 81.75 256.893 83.0833C256.226 83.5833 255.56 84.1667 254.893 84.8333C258.893 86 262.143 88.0833 264.643 91.0833C267.643 95.25 270.643 98.25 273.643 100.083C277.143 102.25 279.393 103.833 280.393 104.833C281.393 105.667 281.893 106.5 281.893 107.333C281.893 108.667 280.393 109.167 277.393 108.833L275.393 107.833C270.393 105.333 266.893 102.75 264.893 100.083C261.893 95.4167 259.643 92.3333 258.143 90.8333C255.976 89.3333 253.56 88.6667 250.893 88.8333C247.226 92.1667 244.31 94.6667 242.143 96.3333C239.643 98.1667 233.56 102.25 223.893 108.583C223.56 109.083 223.06 109 222.393 108.333L220.893 106.333C220.06 104.667 219.81 103.417 220.143 102.583L222.643 104.083C224.643 103.083 226.976 101.667 229.643 99.8333C232.143 97.8333 235.81 94.4167 240.643 89.5833C243.31 86.75 245.476 84.4167 247.143 82.5833C247.643 81.4167 247.81 80.75 247.643 80.5833C249.643 77.75 251.226 76.4167 252.393 76.5833ZM250.893 94.3333C251.893 94.3333 253.143 94.75 254.643 95.5833C255.976 96.25 256.643 97.1667 256.643 98.3333C256.643 99.1667 255.893 99.8333 254.393 100.333C252.393 100.833 250.643 101.25 249.143 101.583C249.143 100.917 249.226 100.333 249.393 99.8333C247.56 98.6667 245.893 97.5833 244.393 96.5833C245.893 95.25 248.06 94.5 250.893 94.3333ZM254.393 103.333C255.893 103.333 257.393 103.833 258.893 104.833C260.393 105.667 261.143 107.333 261.143 109.833C261.143 120.667 256.06 125.917 245.893 125.583C244.393 125.583 243.143 125.417 242.143 125.083C240.976 124.75 240.226 124.5 239.893 124.333C241.06 124.167 242.393 124 243.893 123.833C247.56 121.5 250.226 119.167 251.893 116.833C253.393 114.167 254.143 111.5 254.143 108.833L252.893 108.333C251.893 108.667 250.643 109 249.143 109.333C247.143 109.667 245.393 110.25 243.893 111.083C242.06 112.083 240.476 112.5 239.143 112.333C237.976 112.167 236.976 111.417 236.143 110.083C235.81 109.583 235.81 109 236.143 108.333C236.81 107.333 237.893 107.083 239.393 107.583C239.726 107.75 240.06 107.833 240.393 107.833C247.893 104.833 252.56 103.333 254.393 103.333Z" fill="white"/>
<path d="M293.153 72.3333C294.82 72.8333 295.986 73.5833 296.653 74.5833C297.653 75.4167 297.653 76.3333 296.653 77.3333C298.486 76.8333 300.07 76.5 301.403 76.3333C309.57 75.5 313.236 75.0833 312.403 75.0833C315.07 74.9167 316.82 75.5833 317.653 77.0833C317.986 77.75 317.82 78.4167 317.153 79.0833C314.486 79.75 312.32 80.8333 310.653 82.3333C310.486 83.1667 310.32 83.9167 310.153 84.5833C311.986 85.25 312.903 86 312.903 86.8333C312.403 87.6667 311.653 88.3333 310.653 88.8333C310.486 89.5 310.403 90.1667 310.403 90.8333C310.403 95.3333 310.403 98.5 310.403 100.333H318.653C319.486 100.333 320.32 100.25 321.153 100.083C323.986 100.083 326.653 101.167 329.153 103.333C330.153 104.5 330.153 105.25 329.153 105.583C326.986 106.083 322.903 105.75 316.903 104.583C314.57 104.25 312.903 104.083 311.903 104.083L310.403 103.833L310.653 107.833C310.653 110.5 310.486 112.917 310.153 115.083C309.82 119.917 309.403 123.417 308.903 125.583C308.236 128.083 307.57 129.333 306.903 129.333C305.403 126.333 304.486 123.25 304.153 120.083C303.653 116.917 303.486 113.583 303.653 110.083C303.82 108.583 303.903 106.667 303.903 104.333C295.57 105.333 287.986 107.167 281.153 109.833C279.653 108 278.903 106.75 278.903 106.083C279.07 105.417 279.736 105.083 280.903 105.083C283.07 105.083 285.57 104.583 288.403 103.583C290.403 102.25 292.236 100.417 293.903 98.0833C292.736 97.4167 291.486 96.75 290.153 96.0833C292.153 95.25 294.32 94.6667 296.653 94.3333C299.653 94.1667 301.486 94.5 302.153 95.3333C302.82 96.1667 302.653 97 301.653 97.8333C299.82 98.6667 298.403 99.8333 297.403 101.333C299.736 100.833 302.07 100.5 304.403 100.333V95.3333C304.236 94.3333 304.153 93.25 304.153 92.0833C302.32 92.75 300.736 93.0833 299.403 93.0833L303.903 89.5833C300.903 90.0833 298.82 90.4167 297.653 90.5833C296.653 90.0833 295.986 88.9167 295.653 87.0833C295.653 86.4167 296.236 85.75 297.403 85.0833C298.57 85.9167 299.82 86.1667 301.153 85.8333C302.82 84.6667 304.236 83.4167 305.403 82.0833C305.736 79.9167 304.486 78.8333 301.653 78.8333C300.32 78.8333 299.153 79.1667 298.153 79.8333C296.82 80.5 295.153 81.8333 293.153 83.8333C291.153 85.8333 289.736 87 288.903 87.3333C287.57 86 286.903 84.6667 286.903 83.3333C286.903 82.3333 287.486 81.25 288.653 80.0833C290.153 78.0833 291.486 76.25 292.653 74.5833L291.653 72.0833C291.82 71.9167 292.32 72 293.153 72.3333Z" fill="white"/>
<rect x="146.958" y="48.9492" width="53.5424" height="105.102" fill="#D9D9D9"/>
<path d="M169.271 89.563C171.209 90.3789 172.178 91.4498 172.178 92.7757C172.178 93.9997 172.025 96.6005 171.719 100.578C171.617 104.76 173.962 108.534 178.756 111.899C179.062 112.205 178.858 112.358 178.144 112.358C177.226 112.256 176.155 111.848 174.931 111.134C173.707 110.522 172.432 109.401 171.107 107.769C170.189 106.545 169.577 105.015 169.271 103.179C168.965 101.241 168.965 99.0483 169.271 96.6005C169.475 94.1526 169.577 92.3678 169.577 91.2458C169.577 90.6339 169.322 90.1239 168.812 89.716C168.914 89.614 169.067 89.563 169.271 89.563ZM159.173 90.3279C159.683 91.1439 159.938 92.0618 159.938 93.0817C160.04 93.8977 159.989 94.7646 159.785 95.6825C160.295 95.9885 160.754 96.3455 161.162 96.7535C162.182 95.6315 163.151 94.7136 164.069 93.9997L165.293 93.0817L164.375 94.1526C162.029 97.3144 160.193 99.8642 158.867 101.802C158.765 103.23 158.714 104.811 158.714 106.545C158.714 108.177 158.765 109.809 158.867 111.44C158.969 112.868 159.071 114.041 159.173 114.959C159.173 115.877 158.867 116.336 158.255 116.336C157.44 115.316 156.675 114.449 155.961 113.735C155.349 112.817 154.839 111.542 154.431 109.911C154.329 109.605 154.329 109.35 154.431 109.146C155.451 110.573 156.063 111.032 156.267 110.522V107.616C156.267 106.8 156.318 106.137 156.42 105.627L155.043 107.157C153.309 109.503 152.238 110.879 151.83 111.287C151.422 111.797 151.014 112.052 150.606 112.052C150.096 112.052 149.688 111.695 149.382 110.981C149.28 110.777 149.841 109.962 151.065 108.534C153.309 105.474 155.247 102.924 156.879 100.884C156.981 100.272 157.083 99.5073 157.185 98.5893C155.757 98.7933 154.074 99.4053 152.136 100.425C151.626 100.425 151.167 100.527 150.759 100.731C151.473 99.2013 153.768 97.6204 157.644 95.9885C158.051 94.6626 158.306 93.5917 158.408 92.7757V89.8689C158.612 89.7669 158.867 89.9199 159.173 90.3279Z" fill="black"/>
<path d="M184.955 87.2681C185.465 87.8801 185.873 89.308 186.179 91.5518C186.281 92.4698 186.383 93.3877 186.485 94.3056C186.485 94.6116 186.485 94.9176 186.485 95.2236C188.015 95.1216 189.392 94.9176 190.616 94.6116C191.636 94.4076 192.197 93.9997 192.299 93.3877C193.217 93.3877 193.727 94.1526 193.829 95.6825C193.421 97.0084 192.35 97.7224 190.616 97.8244C188.882 97.7224 187.505 97.3144 186.485 96.6005V102.873C186.485 103.587 186.485 104.25 186.485 104.862C187.097 104.862 187.76 104.913 188.474 105.015C192.248 105.423 194.39 106.749 194.899 108.993C194.593 109.299 193.574 109.554 191.84 109.758C191.228 109.86 190.769 109.86 190.463 109.758C191.381 109.248 191.942 108.84 192.146 108.534C191.228 107.922 189.392 107.565 186.638 107.463C186.842 110.319 186.944 112.154 186.944 112.97C186.944 113.684 186.638 114.602 186.026 115.724C185.414 116.744 184.496 117.254 183.272 117.254C181.13 116.234 179.397 114.806 178.071 112.97C176.541 111.032 175.827 109.656 175.929 108.84C175.725 107.718 176.031 107.106 176.847 107.004C178.377 106.086 180.569 105.474 183.425 105.168C183.425 102.516 183.476 99.7622 183.578 96.9064C183.578 91.2968 183.731 87.8801 184.037 86.6562C184.445 86.8602 184.751 87.0641 184.955 87.2681ZM183.731 107.616C181.691 107.718 180.111 108.126 178.989 108.84V109.299C180.111 110.828 181.232 112.052 182.354 112.97C182.66 113.276 183.068 113.48 183.578 113.582C183.782 113.276 183.935 112.817 184.037 112.205C184.037 111.083 183.986 110.166 183.884 109.452C183.782 108.738 183.731 108.126 183.731 107.616Z" fill="black"/>
<rect x="88.9534" y="48.9492" width="53.5424" height="105.102" fill="#D9D9D9"/>
<path d="M125.345 89.6714C129.11 92.1812 130.923 93.8544 130.783 94.691C130.365 95.2488 130.086 95.7368 129.947 96.1551C128.413 105.358 127.298 110.517 126.6 111.632C126.043 112.469 124.857 112.678 123.045 112.26C120.535 112.26 117.816 112.26 114.888 112.26C112.796 112.399 110.844 112.538 109.032 112.678C108.056 113.096 107.219 113.305 106.522 113.305C105.406 113.026 104.5 112.12 103.803 110.586C103.385 109.471 103.245 108.007 103.385 106.194C102.827 100.896 102.269 96.7128 101.712 93.6453C101.433 93.0875 100.945 92.3904 100.247 91.5538C100.945 91.4143 101.781 91.3446 102.757 91.3446C104.012 91.2052 105.616 90.996 107.568 90.7172C109.659 90.5777 111.472 90.508 113.006 90.508C114.4 90.508 117.607 90.508 122.627 90.508C123.603 90.2292 124.509 89.9503 125.345 89.6714ZM110.705 94.4819C109.171 94.4819 108.056 94.5516 107.359 94.691C107.637 100.129 107.847 104.66 107.986 108.286C109.52 108.146 111.402 108.077 113.633 108.077C116.84 107.937 119.42 107.937 121.372 108.077C121.929 105.985 122.348 103.684 122.627 101.175C123.045 98.6649 123.254 96.922 123.254 95.9459C123.254 95.2488 123.184 94.7607 123.045 94.4819L116.979 94.2727L110.705 94.4819Z" fill="black"/>
<rect x="30.9492" y="48.9492" width="53.5424" height="105.102" fill="#D9D9D9"/>
<path d="M64.4131 87.5799C66.7835 88.4165 68.4567 89.4623 69.4327 90.7172C69.7116 91.1355 69.7116 91.484 69.4327 91.7629C68.4567 92.7389 67.4806 93.8544 66.5046 95.1093C63.9948 98.7346 61.6942 101.593 59.6027 103.684C60.5787 103.963 61.8336 104.451 63.3674 105.149C70.0602 107.937 74.2432 111.005 75.9164 114.351C75.9164 115.188 75.7769 115.885 75.4981 116.443C75.0798 117 74.2432 117.279 72.9883 117.279C71.7334 117.279 69.1538 115.397 65.2497 111.632C61.9033 108.146 59.5329 105.985 58.1386 105.149C54.7922 107.937 51.3064 110.308 47.6811 112.26C44.1953 113.933 41.6158 114.63 39.9426 114.351C38.9665 114.212 38.2694 113.863 37.8511 113.305C39.2454 113.026 40.8489 112.469 42.6615 111.632C52.143 105.218 58.6266 98.6649 62.1125 91.9721C58.0689 92.8087 54.7922 93.4361 52.2824 93.8544C51.5853 93.5755 50.6789 93.0178 49.5635 92.1812C48.0297 91.0657 46.8445 90.2989 46.0079 89.8806C45.8685 89.7411 45.5199 89.6017 44.9622 89.4623C49.1452 89.4623 52.4218 89.3925 54.7922 89.2531C57.9992 89.1137 60.2998 88.8348 61.6942 88.4165C62.5308 87.5799 63.4371 87.3011 64.4131 87.5799Z" fill="black"/>
<g filter="url(#filter0_f_11_131)">
<path d="M164.673 46.9872C165.21 46.8888 166.178 47.1347 167.575 47.725C168.22 48.0201 168.489 48.5612 168.381 49.3482C168.166 50.627 167.897 51.9551 167.575 53.3323C168.327 53.5291 168.972 53.8242 169.51 54.2177C169.725 54.4145 169.994 54.7096 170.316 55.1031C169.241 56.0868 168.112 56.923 166.93 57.6116C166.823 59.0873 166.715 60.1694 166.608 60.858L166.446 61.5958C167.306 61.1039 168.22 60.5629 169.187 59.9726C168.435 61.3499 167.521 62.5796 166.446 63.6617L166.608 70.7446V72.5154C166.5 73.5975 166.178 74.2861 165.64 74.5813C164.135 74.2861 163.329 73.3516 163.221 71.7776C163.221 70.7938 163.383 69.5641 163.705 68.0885V65.2849C161.985 66.367 160.265 67.3507 158.545 68.2361C158.008 68.5312 157.578 68.6296 157.255 68.5312C155.75 67.0556 155.482 66.0227 156.449 65.4324C158.599 64.1535 160.803 61.9401 163.06 58.7921L160.803 58.6446C159.405 57.9559 158.33 57.3165 157.578 56.7263C157.148 56.7263 157.148 56.5787 157.578 56.2836C161.233 55.7917 163.544 54.9555 164.511 53.775L164.35 49.6433L164.028 48.3152C164.243 47.725 164.458 47.2823 164.673 46.9872ZM179.346 47.2823C179.991 47.9709 180.797 48.7579 181.764 49.6433C182.732 49.5449 183.699 49.3482 184.667 49.053C184.989 48.9547 185.634 49.2006 186.602 49.7909C187.462 50.2827 187.892 50.9222 187.892 51.7092C186.924 53.2832 185.473 54.6112 183.538 55.6933C181.388 56.8738 179.507 57.4641 177.895 57.4641C177.357 57.4641 176.981 57.4149 176.766 57.3165L178.056 56.5787C181.388 54.9063 183.377 53.0864 184.022 51.1189L183.861 50.8238C182.571 51.414 181.388 51.8567 180.313 52.1518C179.883 52.1518 179.507 51.7583 179.185 50.9714C178.755 50.086 178.54 48.8563 178.54 47.2823C178.647 47.0856 178.916 47.0856 179.346 47.2823ZM172.251 49.053C175.368 50.3319 176.873 51.4632 176.766 52.447C176.766 53.234 176.497 53.8734 175.96 54.3653H175.315C174.885 54.3653 174.293 53.775 173.541 52.5945C172.681 51.414 172.251 50.3811 172.251 49.4957C172.144 49.2006 172.144 49.053 172.251 49.053ZM174.831 57.6116C176.443 58.2019 177.465 59.284 177.895 60.858L181.926 60.7104C183.538 60.5137 184.774 60.4153 185.634 60.4153C186.172 60.1202 186.602 59.9726 186.924 59.9726H187.247C188.214 59.9726 189.343 60.3169 190.633 61.0056C191.923 61.5958 192.568 62.1369 192.568 62.6287C192.568 63.3174 192.245 63.6617 191.6 63.6617C188.053 63.0714 185.796 62.7271 184.828 62.6287H182.571C182.356 62.5304 182.033 62.5304 181.603 62.6287C182.463 63.4157 183.001 64.4487 183.216 65.7275C183.108 67.0064 182.624 68.0885 181.764 68.9739C183.269 69.7609 184.506 70.5971 185.473 71.4825C186.655 72.3678 187.247 73.1548 187.247 73.8434L186.602 74.7288C185.634 74.7288 184.506 74.1386 183.216 72.9581C182.033 71.9743 180.904 71.2365 179.83 70.7446C178.54 71.5316 177.303 72.1219 176.121 72.5154C175.583 72.7121 174.831 72.8597 173.863 72.9581C173.111 72.9581 172.305 72.5154 171.445 71.63C170.477 70.6463 169.832 69.7117 169.51 68.8263C169.617 68.5312 169.886 68.5804 170.316 68.9739L172.574 70.4495C173.434 70.7446 174.132 70.7938 174.67 70.5971C175.53 70.302 176.282 69.8593 176.927 69.269C174.24 68.482 172.896 67.4491 172.896 66.1702C173.541 65.3832 174.186 64.4979 174.831 63.5141L173.38 63.8092C171.982 64.3011 170.585 64.5962 169.187 64.6946C168.757 64.5962 168.327 64.3503 167.897 63.9568C167.575 63.76 167.629 63.5633 168.059 63.3665C168.919 62.9731 169.564 62.7271 169.994 62.6287C172.144 62.0385 173.863 61.645 175.153 61.4482L175.315 59.0873L174.347 57.7592C174.347 57.3657 174.508 57.3165 174.831 57.6116ZM163.383 63.219C163.49 62.9239 163.598 62.4812 163.705 61.8909C163.383 62.1861 163.114 62.4812 162.899 62.7763L162.093 63.6617L163.383 63.219ZM177.895 62.9239C177.572 64.1044 177.25 64.9897 176.927 65.58L176.282 66.908C176.927 67.1048 177.733 67.3507 178.701 67.6458C179.561 66.8588 180.206 65.7767 180.636 64.3995C180.851 63.9076 180.689 63.3665 180.152 62.7763C179.507 62.6779 178.97 62.6779 178.54 62.7763L177.895 62.9239Z" fill="#D10058"/>
</g>
<g filter="url(#filter1_f_11_131)">
<path d="M181.196 129.785C183.015 129.616 183.818 130.252 183.604 131.694C182.32 135.936 181.624 139.414 181.517 142.129L181.838 145.056C183.871 144.292 185.209 143.486 185.851 142.638C184.032 142.214 182.801 141.62 182.159 140.856C181.945 140.687 181.945 140.432 182.159 140.093C183.015 139.16 183.711 138.226 184.246 137.293C183.711 137.208 183.283 137.208 182.962 137.293C182.641 136.954 182.534 136.615 182.641 136.275C183.39 136.021 184.353 135.724 185.53 135.384C186.279 135.13 186.814 135.13 187.135 135.384C187.991 135.893 188.365 136.275 188.258 136.53C187.509 138.142 186.6 139.456 185.53 140.475C186.065 140.729 186.707 140.984 187.456 141.238C188.526 141.493 189.275 141.874 189.703 142.383C190.131 142.723 190.077 142.977 189.542 143.147L186.172 144.038C185.209 144.547 183.764 145.013 181.838 145.437L181.999 147.346C183.069 148.873 183.978 149.806 184.727 150.146C185.155 150.315 186.493 150.4 188.74 150.4C189.168 150.231 189.435 149.976 189.542 149.637C189.435 147.261 188.74 145.692 187.456 144.928C187.349 144.759 187.295 144.547 187.295 144.292L188.579 145.31C192.003 148.025 193.661 150.103 193.554 151.546C193.34 152.224 192.538 152.564 191.147 152.564H189.221C185.904 152.564 183.39 152.055 181.678 151.037C179.859 149.934 178.95 147.558 178.95 143.91C178.95 141.874 179.271 139.414 179.912 136.53C180.34 134.494 180.661 132.712 180.875 131.185C180.554 130.931 180.18 130.846 179.752 130.931C179.324 130.761 179.11 130.591 179.11 130.422C179.11 130.167 179.805 129.955 181.196 129.785ZM174.135 133.348C173.921 132.33 173.493 131.44 172.851 130.676C174.349 131.185 175.419 131.779 176.061 132.458C176.596 133.051 176.863 134.197 176.863 135.893C176.863 140.814 176.168 144.462 174.777 146.837C173.493 148.958 170.978 150.528 167.234 151.546C166.592 151.63 166.003 151.588 165.468 151.418C169.748 149.297 172.476 146.413 173.653 142.765C172.369 143.783 171.192 144.674 170.122 145.437C169.801 145.692 169.534 145.649 169.32 145.31L168.678 144.547C168.143 143.868 168.036 143.401 168.357 143.147C170.497 142.553 171.727 141.068 172.048 138.693C171.085 137.845 170.229 137.039 169.48 136.275C169.48 136.19 169.748 136.106 170.283 136.021C171.567 135.936 172.53 136.021 173.172 136.275C173.814 136.53 174.135 137.039 174.135 137.802C174.135 138.226 173.974 138.523 173.653 138.693C172.262 139.456 171.62 140.432 171.727 141.62C172.69 141.196 173.493 140.856 174.135 140.602C174.242 140.008 174.295 139.372 174.295 138.693C174.295 136.063 174.242 134.282 174.135 133.348ZM167.073 133.603C168.036 133.603 168.785 133.815 169.32 134.239C169.748 134.748 169.801 135.087 169.48 135.257C168.945 135.851 168.143 136.53 167.073 137.293L168.196 138.184C168.41 138.354 168.41 138.566 168.196 138.82C167.875 139.16 167.287 139.414 166.431 139.584C164.826 140.262 163.328 140.941 161.937 141.62C161.402 141.705 161.188 141.662 161.295 141.493C162.151 140.814 162.686 140.305 162.9 139.966L162.098 138.566C161.991 138.311 162.151 138.014 162.579 137.675C163.542 136.996 164.291 136.318 164.826 135.639L164.184 135.384C162.365 135.724 161.188 136.19 160.653 136.784C160.867 137.293 161.188 137.972 161.616 138.82C161.937 139.584 161.777 140.093 161.135 140.347C160.172 140.517 159.262 140.093 158.406 139.075C157.55 138.057 157.122 137.124 157.122 136.275C157.015 135.766 156.962 135.342 156.962 135.003C157.176 134.748 157.336 134.663 157.443 134.748C157.764 134.918 158.567 135.512 159.851 136.53C161.242 135.342 162.365 134.621 163.221 134.366C163.863 133.942 165.147 133.688 167.073 133.603ZM169.641 139.838C168.571 140.856 167.18 141.917 165.468 143.02C165.04 143.359 165.308 143.613 166.271 143.783C167.341 144.038 167.929 144.504 168.036 145.183C168.357 146.54 165.361 148.322 159.048 150.528C157.978 151.121 157.283 151.418 156.962 151.418C155.892 151.588 155.036 150.952 154.394 149.509L155.197 148.491C155.945 147.304 156.48 146.328 156.801 145.565C157.122 144.631 157.497 144.08 157.925 143.91C158.353 143.91 158.513 144.08 158.406 144.419C158.192 145.268 158.246 146.413 158.567 147.855C160.707 147.177 162.847 146.371 164.987 145.437C165.308 145.268 165.308 145.056 164.987 144.801L163.703 143.783C163.275 143.953 162.793 144.038 162.258 144.038C161.937 144.122 161.563 143.953 161.135 143.529C161.991 142.765 162.633 142.214 163.061 141.874C163.275 142.044 163.756 142.086 164.505 142.002C166.538 141.153 168.25 140.432 169.641 139.838Z" fill="#F400B0"/>
</g>
<g filter="url(#filter2_f_11_131)">
<path d="M113.905 46.9661C114.683 47.1559 115.572 47.3932 116.572 47.678L117.572 48.5322L117.906 51.2373C117.683 53.0407 117.461 54.4644 117.239 55.5085C118.573 55.0339 119.517 54.5593 120.073 54.0847C120.073 53.7051 120.351 53.5153 120.907 53.5153C121.796 53.5153 122.74 53.6576 123.741 53.9424C124.741 54.1322 125.463 54.4644 125.908 54.939C126.13 55.1288 126.13 55.3661 125.908 55.6508C124.908 56.4102 123.074 57.3119 120.406 58.3559C118.85 59.0203 117.406 59.4949 116.072 59.7797C114.961 62.4373 113.127 65 110.571 67.4678C108.792 68.7966 107.07 69.8881 105.403 70.7424C103.847 71.5966 102.013 72.1661 99.9011 72.4508C99.3454 72.0712 98.8453 71.6915 98.4007 71.3119C98.2896 71.122 98.5118 70.8847 99.0675 70.6C100.624 70.2203 102.791 69.0814 105.569 67.1831C108.237 65.0949 110.07 62.9119 111.071 60.6339C106.514 60.2542 103.513 59.2576 102.068 57.6441C101.846 57.2644 102.013 57.1695 102.568 57.3593C102.902 57.3593 103.458 57.4542 104.236 57.6441C104.902 57.739 105.625 57.7864 106.403 57.7864C108.848 57.6915 110.96 57.3119 112.738 56.6475C113.405 55.1288 113.682 52.8508 113.571 49.8136C113.349 49.5288 112.96 49.1966 112.404 48.8169C111.737 48.4373 111.515 48.1525 111.737 47.9627C112.404 47.3932 112.904 47.1085 113.238 47.1085C113.349 47.1085 113.571 47.061 113.905 46.9661ZM127.075 47.8203C129.075 47.7254 130.576 48.1051 131.576 48.9593C132.576 49.7186 133.076 50.5254 133.076 51.3797C133.076 52.2339 132.687 52.7085 131.909 52.8034C129.909 52.7085 128.242 52.3288 126.908 51.6644C126.575 51.2847 126.463 51.0475 126.575 50.9525C126.908 50.8576 127.297 50.6203 127.742 50.2407C126.63 49.2915 126.019 48.722 125.908 48.5322C126.13 48.3424 126.519 48.1051 127.075 47.8203ZM116.905 63.6237C121.796 64.1932 125.463 65.6169 127.908 67.8949C130.353 70.1729 131.576 72.261 131.576 74.1593C131.243 74.539 130.854 74.7288 130.409 74.7288C129.298 74.4441 127.297 73.7797 124.407 72.7356C123.629 72.4508 123.24 72.1661 123.24 71.8814C124.018 71.8814 124.741 71.739 125.408 71.4542C124.296 70.2203 122.685 68.7966 120.573 67.1831C119.684 66.5186 118.461 65.7119 116.905 64.7627C116.35 64.3831 115.905 64.0508 115.572 63.7661C115.794 63.6712 116.239 63.6237 116.905 63.6237Z" fill="#814D00"/>
</g>
<g filter="url(#filter3_f_11_131)">
<path d="M65.9183 129.848C67.1888 130.073 68.0358 130.411 68.4593 130.86C68.5652 131.01 68.6181 131.235 68.6181 131.535C67.877 131.61 67.0829 131.648 66.2359 131.648C65.6007 131.648 65.0184 131.535 64.489 131.31C63.8537 131.01 63.4302 130.673 63.2185 130.298C63.3244 130.223 63.6949 130.111 64.3302 129.961C64.8595 129.736 65.3889 129.699 65.9183 129.848ZM52.4192 131.873C53.1603 131.873 53.8485 131.91 54.4837 131.985C55.0131 132.06 55.3307 132.247 55.4366 132.547C55.5425 132.772 55.3307 133.11 54.8014 133.559C54.4837 133.784 53.9544 134.234 53.2132 134.909L53.372 135.021C54.6425 134.796 55.6484 134.684 56.3895 134.684C57.4483 134.684 58.6129 135.134 59.8834 136.033C60.8363 137.008 60.5186 137.42 58.9305 137.27C57.4483 137.195 56.2836 136.895 55.4366 136.371C54.6955 135.921 53.8485 135.583 52.8956 135.359C51.2016 136.408 49.8781 137.308 48.9253 138.057L50.037 138.17C50.6722 138.17 51.6251 138.057 52.8956 137.832C54.0602 137.832 54.7484 138.02 54.9602 138.395C55.1719 138.62 55.1719 138.845 54.9602 139.069C54.4308 139.219 54.0073 139.369 53.6897 139.519C53.2662 139.519 52.7897 139.557 52.2603 139.632C52.7897 139.707 53.2132 140.007 53.5309 140.531C54.5896 140.456 55.3837 140.681 55.9131 141.206C56.0189 141.581 55.5954 141.918 54.6425 142.218C54.1132 142.443 53.5838 142.63 53.0544 142.78L52.8956 143.905C53.9544 143.905 54.7484 143.942 55.2778 144.017C55.7013 144.017 56.0189 144.13 56.2307 144.355C56.6542 144.729 56.7601 144.992 56.5483 145.142L55.7542 145.704C54.272 146.454 53.2132 146.978 52.578 147.278C52.578 147.578 52.578 147.841 52.578 148.066L55.4366 146.941L56.5483 146.266C56.4424 146.641 56.1248 147.016 55.5954 147.391C54.1132 148.59 52.0486 149.752 49.4017 150.877C46.8607 151.776 45.4314 152.226 45.1137 152.226C44.6902 152.076 44.4255 151.701 44.3197 151.102C44.2138 150.127 44.849 149.677 46.2254 149.752C47.3901 149.228 48.4488 148.59 49.4017 147.841L48.7664 146.491C49.2958 146.641 49.7723 146.754 50.1958 146.829C50.1958 146.454 50.2487 146.116 50.3546 145.816L46.5431 146.379L45.749 145.929C47.2313 145.479 48.8194 144.954 50.5134 144.355C50.4075 143.98 50.4075 143.605 50.5134 143.23C49.4546 143.455 48.6076 143.53 47.9724 143.455C47.443 143.38 47.0724 143.23 46.8607 143.005C46.4372 142.705 46.3313 142.443 46.5431 142.218C48.6606 141.918 50.2487 141.543 51.3075 141.094C51.3075 140.794 51.4663 140.269 51.7839 139.519C50.7251 139.294 49.6664 138.882 48.6076 138.282L47.6548 138.957C44.6902 140.906 42.8904 142.031 42.2551 142.331C41.4081 142.555 40.7728 142.705 40.3493 142.78C40.0317 142.48 39.8729 142.031 39.8729 141.431C39.8729 140.906 40.1905 140.419 40.8258 139.969C41.3552 139.444 42.1492 139.182 43.208 139.182C44.5844 138.507 45.6431 137.907 46.3842 137.383C47.1254 136.783 48.7664 135.434 51.3075 133.334L50.9898 132.66C50.7781 132.135 51.2545 131.873 52.4192 131.873ZM68.3005 132.21C69.1475 132.51 69.3593 132.922 68.9358 133.447C68.0888 133.672 67.2947 134.084 66.5536 134.684C67.7182 134.609 68.8299 134.646 69.8886 134.796C70.1004 134.871 70.3651 135.096 70.6827 135.471C70.8945 135.771 70.8945 135.996 70.6827 136.146C69.7298 136.895 68.5652 137.495 67.1888 137.945C69.4122 137.945 71.3709 137.907 73.0649 137.832C74.3354 137.757 75.3412 138.02 76.0824 138.62C77.5646 139.219 77.3529 139.669 75.4471 139.969C73.3296 139.594 71.6885 139.369 70.5239 139.294C68.4064 139.219 66.9241 139.219 66.0771 139.294C65.0184 139.444 62.4244 139.857 58.2953 140.531C56.2836 140.231 55.2249 139.969 55.119 139.744C56.813 139.744 58.7717 139.407 60.9951 138.732C63.2185 138.057 65.3889 137.158 67.5064 136.033H66.2359C65.3889 136.183 64.7007 136.408 64.1714 136.708C63.642 136.858 63.1126 137.12 62.5832 137.495C62.3715 137.645 61.948 137.608 61.3127 137.383V136.708L61.6303 135.808L63.6949 134.346C63.2714 134.272 62.6891 133.972 61.948 133.447C61.7362 133.147 61.8421 132.997 62.2656 132.997C63.1126 132.997 63.9067 132.96 64.6478 132.885C66.1301 132.435 67.3476 132.21 68.3005 132.21ZM70.5239 140.531C71.7944 140.831 72.5885 141.243 72.9061 141.768C73.2237 142.518 72.5885 143.68 71.0003 145.254C70.5768 145.704 69.1475 146.079 66.7124 146.379C66.7124 146.529 66.7653 146.716 66.8712 146.941C67.5064 146.716 68.3005 146.716 69.2534 146.941C70.3121 147.391 70.7886 147.766 70.6827 148.066C70.471 148.59 69.571 149.078 67.9829 149.527C67.2418 149.752 66.7653 149.977 66.5536 150.202C67.7182 150.202 68.724 150.24 69.571 150.315C71.0533 150.39 72.4297 150.689 73.7002 151.214C74.1237 151.514 74.3354 151.814 74.3354 152.114C74.1237 152.414 73.7002 152.564 73.0649 152.564C70.7356 152.414 68.1946 152.226 65.4419 152.001C62.9008 152.226 60.8892 152.376 59.407 152.451C57.2894 152.301 56.7071 151.889 57.66 151.214L58.9305 151.327C60.6245 151.177 61.7892 150.877 62.4244 150.427C61.7892 149.977 60.9951 149.527 60.0422 149.078C59.7246 148.853 59.8305 148.478 60.3598 147.953C61.8421 147.653 63.1655 147.391 64.3302 147.166V146.491C63.3773 146.641 62.5832 146.454 61.948 145.929L61.1539 146.266C59.8834 145.517 59.1423 144.879 58.9305 144.355C58.0835 143.38 57.8188 142.555 58.1364 141.881C58.1364 141.431 58.4011 141.356 58.9305 141.656C59.5658 141.956 60.0951 142.443 60.5186 143.118C61.4715 144.617 62.0009 145.442 62.1068 145.592C63.0597 145.517 63.8537 145.367 64.489 145.142L64.3302 144.017C63.589 144.242 62.9008 144.43 62.2656 144.58L62.9008 143.905L62.1068 143.567C61.7892 143.418 61.4186 143.268 60.9951 143.118C62.3715 142.968 63.4832 142.855 64.3302 142.78V141.881C62.8479 141.881 61.7892 141.843 61.1539 141.768C63.589 140.944 66.2359 140.494 69.0946 140.419L70.5239 140.531ZM67.03 141.768C66.9241 141.993 66.9241 142.256 67.03 142.555C67.6653 142.48 68.1417 142.668 68.4593 143.118C68.3534 143.343 67.8241 143.53 66.8712 143.68V144.804C67.9299 144.505 68.724 144.017 69.2534 143.343C69.6769 142.818 69.8886 142.293 69.8886 141.768L68.4593 141.656L67.03 141.768ZM52.7368 145.704C52.9485 145.479 53.2132 145.217 53.5309 144.917C53.2132 144.917 52.9485 144.954 52.7368 145.029V145.704ZM49.5605 148.29C48.9253 148.665 48.1312 149.078 47.1783 149.527V149.64C47.9194 149.415 48.9253 149.153 50.1958 148.853C49.984 148.628 49.7723 148.44 49.5605 148.29ZM61.6303 148.853C61.101 148.928 60.7833 149.003 60.6775 149.078C61.3127 149.302 61.7892 149.452 62.1068 149.527C62.4244 149.602 63.0067 149.64 63.8537 149.64L61.6303 148.853Z" fill="#FBFF3A"/>
</g>
<g filter="url(#filter4_f_11_131)">
<path d="M123.923 129.848C125.193 130.073 126.04 130.411 126.464 130.86C126.569 131.01 126.622 131.235 126.622 131.535C125.881 131.61 125.087 131.648 124.24 131.648C123.605 131.648 123.023 131.535 122.493 131.31C121.858 131.01 121.434 130.673 121.223 130.298C121.329 130.223 121.699 130.111 122.334 129.961C122.864 129.736 123.393 129.699 123.923 129.848ZM110.423 131.873C111.164 131.873 111.853 131.91 112.488 131.985C113.017 132.06 113.335 132.247 113.441 132.547C113.547 132.772 113.335 133.11 112.806 133.559C112.488 133.784 111.959 134.234 111.217 134.909L111.376 135.021C112.647 134.796 113.653 134.684 114.394 134.684C115.452 134.684 116.617 135.134 117.888 136.033C118.84 137.008 118.523 137.42 116.935 137.27C115.452 137.195 114.288 136.895 113.441 136.371C112.7 135.921 111.853 135.583 110.9 135.359C109.206 136.408 107.882 137.308 106.929 138.057L108.041 138.17C108.676 138.17 109.629 138.057 110.9 137.832C112.064 137.832 112.753 138.02 112.964 138.395C113.176 138.62 113.176 138.845 112.964 139.069C112.435 139.219 112.012 139.369 111.694 139.519C111.27 139.519 110.794 139.557 110.265 139.632C110.794 139.707 111.217 140.007 111.535 140.531C112.594 140.456 113.388 140.681 113.917 141.206C114.023 141.581 113.6 141.918 112.647 142.218C112.117 142.443 111.588 142.63 111.059 142.78L110.9 143.905C111.959 143.905 112.753 143.942 113.282 144.017C113.706 144.017 114.023 144.13 114.235 144.355C114.658 144.729 114.764 144.992 114.553 145.142L113.758 145.704C112.276 146.454 111.217 146.978 110.582 147.278C110.582 147.578 110.582 147.841 110.582 148.066L113.441 146.941L114.553 146.266C114.447 146.641 114.129 147.016 113.6 147.391C112.117 148.59 110.053 149.752 107.406 150.877C104.865 151.776 103.436 152.226 103.118 152.226C102.694 152.076 102.43 151.701 102.324 151.102C102.218 150.127 102.853 149.677 104.23 149.752C105.394 149.228 106.453 148.59 107.406 147.841L106.771 146.491C107.3 146.641 107.776 146.754 108.2 146.829C108.2 146.454 108.253 146.116 108.359 145.816L104.547 146.379L103.753 145.929C105.235 145.479 106.824 144.954 108.518 144.355C108.412 143.98 108.412 143.605 108.518 143.23C107.459 143.455 106.612 143.53 105.977 143.455C105.447 143.38 105.077 143.23 104.865 143.005C104.441 142.705 104.336 142.443 104.547 142.218C106.665 141.918 108.253 141.543 109.312 141.094C109.312 140.794 109.47 140.269 109.788 139.519C108.729 139.294 107.671 138.882 106.612 138.282L105.659 138.957C102.694 140.906 100.895 142.031 100.259 142.331C99.4123 142.555 98.777 142.705 98.3535 142.78C98.0359 142.48 97.8771 142.031 97.8771 141.431C97.8771 140.906 98.1947 140.419 98.83 139.969C99.3594 139.444 100.153 139.182 101.212 139.182C102.589 138.507 103.647 137.907 104.388 137.383C105.13 136.783 106.771 135.434 109.312 133.334L108.994 132.66C108.782 132.135 109.259 131.873 110.423 131.873ZM126.305 132.21C127.152 132.51 127.363 132.922 126.94 133.447C126.093 133.672 125.299 134.084 124.558 134.684C125.722 134.609 126.834 134.646 127.893 134.796C128.105 134.871 128.369 135.096 128.687 135.471C128.899 135.771 128.899 135.996 128.687 136.146C127.734 136.895 126.569 137.495 125.193 137.945C127.416 137.945 129.375 137.907 131.069 137.832C132.34 137.757 133.345 138.02 134.087 138.62C135.569 139.219 135.357 139.669 133.451 139.969C131.334 139.594 129.693 139.369 128.528 139.294C126.411 139.219 124.928 139.219 124.081 139.294C123.023 139.444 120.429 139.857 116.299 140.531C114.288 140.231 113.229 139.969 113.123 139.744C114.817 139.744 116.776 139.407 118.999 138.732C121.223 138.057 123.393 137.158 125.511 136.033H124.24C123.393 136.183 122.705 136.408 122.176 136.708C121.646 136.858 121.117 137.12 120.587 137.495C120.376 137.645 119.952 137.608 119.317 137.383V136.708L119.635 135.808L121.699 134.346C121.276 134.272 120.693 133.972 119.952 133.447C119.74 133.147 119.846 132.997 120.27 132.997C121.117 132.997 121.911 132.96 122.652 132.885C124.134 132.435 125.352 132.21 126.305 132.21ZM128.528 140.531C129.799 140.831 130.593 141.243 130.91 141.768C131.228 142.518 130.593 143.68 129.005 145.254C128.581 145.704 127.152 146.079 124.717 146.379C124.717 146.529 124.77 146.716 124.875 146.941C125.511 146.716 126.305 146.716 127.258 146.941C128.316 147.391 128.793 147.766 128.687 148.066C128.475 148.59 127.575 149.078 125.987 149.527C125.246 149.752 124.77 149.977 124.558 150.202C125.722 150.202 126.728 150.24 127.575 150.315C129.057 150.39 130.434 150.689 131.704 151.214C132.128 151.514 132.34 151.814 132.34 152.114C132.128 152.414 131.704 152.564 131.069 152.564C128.74 152.414 126.199 152.226 123.446 152.001C120.905 152.226 118.893 152.376 117.411 152.451C115.294 152.301 114.711 151.889 115.664 151.214L116.935 151.327C118.629 151.177 119.793 150.877 120.429 150.427C119.793 149.977 118.999 149.527 118.046 149.078C117.729 148.853 117.835 148.478 118.364 147.953C119.846 147.653 121.17 147.391 122.334 147.166V146.491C121.381 146.641 120.587 146.454 119.952 145.929L119.158 146.266C117.888 145.517 117.146 144.879 116.935 144.355C116.088 143.38 115.823 142.555 116.141 141.881C116.141 141.431 116.405 141.356 116.935 141.656C117.57 141.956 118.099 142.443 118.523 143.118C119.476 144.617 120.005 145.442 120.111 145.592C121.064 145.517 121.858 145.367 122.493 145.142L122.334 144.017C121.593 144.242 120.905 144.43 120.27 144.58L120.905 143.905L120.111 143.567C119.793 143.418 119.423 143.268 118.999 143.118C120.376 142.968 121.487 142.855 122.334 142.78V141.881C120.852 141.881 119.793 141.843 119.158 141.768C121.593 140.944 124.24 140.494 127.099 140.419L128.528 140.531ZM125.034 141.768C124.928 141.993 124.928 142.256 125.034 142.555C125.669 142.48 126.146 142.668 126.464 143.118C126.358 143.343 125.828 143.53 124.875 143.68V144.804C125.934 144.505 126.728 144.017 127.258 143.343C127.681 142.818 127.893 142.293 127.893 141.768L126.464 141.656L125.034 141.768ZM110.741 145.704C110.953 145.479 111.217 145.217 111.535 144.917C111.217 144.917 110.953 144.954 110.741 145.029V145.704ZM107.565 148.29C106.929 148.665 106.135 149.078 105.183 149.527V149.64C105.924 149.415 106.929 149.153 108.2 148.853C107.988 148.628 107.776 148.44 107.565 148.29ZM119.635 148.853C119.105 148.928 118.788 149.003 118.682 149.078C119.317 149.302 119.793 149.452 120.111 149.527C120.429 149.602 121.011 149.64 121.858 149.64L119.635 148.853Z" fill="#FBFF3A"/>
</g>
<g filter="url(#filter5_f_11_131)">
<path d="M67.6715 46.9661C68.7806 47.1776 69.751 47.4949 70.5828 47.918C71.5532 48.4468 71.8304 48.9756 71.4146 49.5044L70.9987 50.139C67.6715 53.8407 64.9682 57.0664 62.8888 59.8163C60.9479 62.3546 58.5219 67.1668 55.6106 74.2529C55.1947 74.5702 54.8482 74.7288 54.5709 74.7288C53.6005 74.7288 52.4914 74.1471 51.2438 72.9837C50.5506 72.2434 50.412 71.5559 50.8279 70.9214C54.155 64.8929 56.7197 60.7153 58.5219 58.3885C60.3241 55.9559 62.3342 53.4705 64.5523 50.9322L52.9073 52.36C52.2142 52.4658 51.6597 52.3071 51.2438 51.8841L50.6199 51.2495L49.7881 49.0285L50.204 48.5525L52.6994 48.2353C57.9674 47.8122 62.9581 47.3892 67.6715 46.9661Z" fill="#B60000"/>
</g>
<rect x="142.496" y="48.9492" width="4.46186" height="105.102" fill="black"/>
<rect x="84.4915" y="48.9492" width="4.46186" height="105.102" fill="black"/>
<g filter="url(#filter6_d_11_131)">
<path fill-rule="evenodd" clip-rule="evenodd" d="M206.945 43H25V160H206.945V43ZM200.5 48.9492H30.9492V154.051H200.5V48.9492Z" fill="#C6BE00"/>
</g>
<defs>
<filter id="filter0_f_11_131" x="153.881" y="44.9661" width="40.6864" height="31.7627" filterUnits="userSpaceOnUse" color-interpolation-filters="sRGB">
<feFlood flood-opacity="0" result="BackgroundImageFix"/>
<feBlend mode="normal" in="SourceGraphic" in2="BackgroundImageFix" result="shape"/>
<feGaussianBlur stdDeviation="1" result="effect1_foregroundBlur_11_131"/>
</filter>
<filter id="filter1_f_11_131" x="152.394" y="127.758" width="43.1653" height="26.8051" filterUnits="userSpaceOnUse" color-interpolation-filters="sRGB">
<feFlood flood-opacity="0" result="BackgroundImageFix"/>
<feBlend mode="normal" in="SourceGraphic" in2="BackgroundImageFix" result="shape"/>
<feGaussianBlur stdDeviation="1" result="effect1_foregroundBlur_11_131"/>
</filter>
<filter id="filter2_f_11_131" x="96.3729" y="44.9661" width="38.7034" height="31.7627" filterUnits="userSpaceOnUse" color-interpolation-filters="sRGB">
<feFlood flood-opacity="0" result="BackgroundImageFix"/>
<feBlend mode="normal" in="SourceGraphic" in2="BackgroundImageFix" result="shape"/>
<feGaussianBlur stdDeviation="1" result="effect1_foregroundBlur_11_131"/>
</filter>
<filter id="filter3_f_11_131" x="37.8729" y="127.758" width="41.1822" height="26.8051" filterUnits="userSpaceOnUse" color-interpolation-filters="sRGB">
<feFlood flood-opacity="0" result="BackgroundImageFix"/>
<feBlend mode="normal" in="SourceGraphic" in2="BackgroundImageFix" result="shape"/>
<feGaussianBlur stdDeviation="1" result="effect1_foregroundBlur_11_131"/>
</filter>
<filter id="filter4_f_11_131" x="95.8771" y="127.758" width="41.1822" height="26.8051" filterUnits="userSpaceOnUse" color-interpolation-filters="sRGB">
<feFlood flood-opacity="0" result="BackgroundImageFix"/>
<feBlend mode="normal" in="SourceGraphic" in2="BackgroundImageFix" result="shape"/>
<feGaussianBlur stdDeviation="1" result="effect1_foregroundBlur_11_131"/>
</filter>
<filter id="filter5_f_11_131" x="47.7881" y="44.9661" width="25.8136" height="31.7627" filterUnits="userSpaceOnUse" color-interpolation-filters="sRGB">
<feFlood flood-opacity="0" result="BackgroundImageFix"/>
<feBlend mode="normal" in="SourceGraphic" in2="BackgroundImageFix" result="shape"/>
<feGaussianBlur stdDeviation="1" result="effect1_foregroundBlur_11_131"/>
</filter>
<filter id="filter6_d_11_131" x="21" y="43" width="189.945" height="125" filterUnits="userSpaceOnUse" color-interpolation-filters="sRGB">
<feFlood flood-opacity="0" result="BackgroundImageFix"/>
<feColorMatrix in="SourceAlpha" type="matrix" values="0 0 0 0 0 0 0 0 0 0 0 0 0 0 0 0 0 0 127 0" result="hardAlpha"/>
<feOffset dy="4"/>
<feGaussianBlur stdDeviation="2"/>
<feComposite in2="hardAlpha" operator="out"/>
<feColorMatrix type="matrix" values="0 0 0 0 0 0 0 0 0 0 0 0 0 0 0 0 0 0 0.25 0"/>
<feBlend mode="normal" in2="BackgroundImageFix" result="effect1_dropShadow_11_131"/>
<feBlend mode="normal" in="SourceGraphic" in2="effect1_dropShadow_11_131" result="shape"/>
</filter>
</defs>
</svg>
