<svg width="467" height="114" viewBox="0 0 467 114" fill="none" xmlns="http://www.w3.org/2000/svg">
<rect width="466.944" height="114" rx="13" fill="#B3B3B3"/>
<rect x="7" y="7" width="452" height="100" rx="6" fill="#4A4A4A"/>
<path d="M157.125 56.625C157.125 46.625 153.542 41.625 146.375 41.625C139.208 41.625 135.625 46.6458 135.625 56.6875C135.625 66.6875 139.208 71.6875 146.375 71.6875C153.542 71.6875 157.125 66.6667 157.125 56.625ZM162.375 74.25C158.458 78.5 153.125 80.625 146.375 80.625C139.625 80.625 134.292 78.5 130.375 74.25C126.458 70 124.5 64.125 124.5 56.625C124.5 49.125 126.458 43.25 130.375 39C134.292 34.75 139.625 32.625 146.375 32.625C153.125 32.625 158.458 34.75 162.375 39C166.292 43.25 168.25 49.125 168.25 56.625C168.25 64.125 166.292 70 162.375 74.25ZM174.5 46.75H184.312L184.438 50.9375H184.562C187.354 47.6875 190.667 46.0625 194.5 46.0625C198.458 46.0625 201.625 47.5625 204 50.5625C206.375 53.5625 207.562 57.8333 207.562 63.375C207.562 68.75 206.333 72.9792 203.875 76.0625C201.417 79.1042 198.292 80.625 194.5 80.625C190.958 80.625 187.792 79.3125 185 76.6875H184.812V94.0625H174.5V46.75ZM197.375 63.375C197.375 56.9583 195.25 53.75 191 53.75C189.333 53.75 187.833 54.3333 186.5 55.5C185.208 56.6667 184.562 57.9583 184.562 59.375V67.3125C184.562 68.7292 185.208 70.0208 186.5 71.1875C187.833 72.3542 189.333 72.9375 191 72.9375C192.958 72.9375 194.5 72.1458 195.625 70.5625C196.792 68.9792 197.375 66.5833 197.375 63.375ZM229.562 48H240V55.25H229.562V66.75C229.562 69.4583 229.812 71.1667 230.312 71.875C230.812 72.5833 231.917 72.9375 233.625 72.9375C235.625 72.9375 237.521 72.6458 239.312 72.0625V79.8125C236.854 80.3542 234.104 80.625 231.062 80.625C226.688 80.625 223.625 79.7083 221.875 77.875C220.125 76 219.25 72.6458 219.25 67.8125V55.25H212.5V48H219.25V35.8125H229.562V48ZM250.062 80V46.75H260.938V80H250.062ZM250.062 40.3125V32H260.938V40.3125H250.062ZM273.125 50.625C276.083 47.5833 280.208 46.0625 285.5 46.0625C290.792 46.0625 294.896 47.5833 297.812 50.625C300.771 53.6667 302.25 57.9167 302.25 63.375C302.25 68.8333 300.771 73.0833 297.812 76.125C294.896 79.125 290.792 80.625 285.5 80.625C280.208 80.625 276.083 79.125 273.125 76.125C270.208 73.0833 268.75 68.8333 268.75 63.375C268.75 57.9167 270.208 53.6667 273.125 50.625ZM280.75 71.0625C281.792 72.6458 283.375 73.4375 285.5 73.4375C287.625 73.4375 289.208 72.6458 290.25 71.0625C291.292 69.4792 291.812 66.9167 291.812 63.375C291.812 59.8333 291.292 57.2708 290.25 55.6875C289.208 54.1042 287.625 53.3125 285.5 53.3125C283.375 53.3125 281.792 54.1042 280.75 55.6875C279.708 57.2708 279.188 59.8333 279.188 63.375C279.188 66.9167 279.708 69.4792 280.75 71.0625ZM308.5 46.75H318.312L318.438 50.9375H318.562C321.354 47.6875 324.708 46.0625 328.625 46.0625C332.5 46.0625 335.292 47.1667 337 49.375C338.708 51.5833 339.562 55.3333 339.562 60.625V80H329.5V60.9375C329.5 58.3542 329.167 56.5833 328.5 55.625C327.833 54.6667 326.604 54.1875 324.812 54.1875C323.312 54.1875 321.917 54.8125 320.625 56.0625C319.375 57.2708 318.75 58.5625 318.75 59.9375V80H308.5V46.75Z" fill="white"/>
</svg>
