<svg width="467" height="114" viewBox="0 0 467 114" fill="none" xmlns="http://www.w3.org/2000/svg">
<rect width="466.944" height="114" rx="13" fill="#B3B3B3"/>
<rect x="7" y="7" width="452" height="100" rx="6" fill="#4A4A4A"/>
<path d="M178.375 44.375C173.917 42.125 169.438 41 164.938 41C160.979 41 159 42.5417 159 45.625C159 48.25 160.708 50.1042 164.125 51.1875C170.042 52.9792 174.125 55.0833 176.375 57.5C178.667 59.875 179.812 63 179.812 66.875C179.812 76.0417 174.042 80.625 162.5 80.625C157.542 80.625 153.125 79.5208 149.25 77.3125V68.0625C153.25 70.7708 157.438 72.125 161.812 72.125C164.104 72.125 165.833 71.6875 167 70.8125C168.167 69.9375 168.75 68.6875 168.75 67.0625C168.75 65.6458 168.333 64.5 167.5 63.625C166.708 62.7083 165.312 61.9375 163.312 61.3125C157.938 59.6042 154.042 57.4792 151.625 54.9375C149.25 52.3958 148.062 49.2917 148.062 45.625C148.062 41.625 149.458 38.4583 152.25 36.125C155.042 33.7917 159.042 32.625 164.25 32.625C169.667 32.625 174.375 33.4792 178.375 35.1875V44.375ZM202.75 48H213.188V55.25H202.75V66.75C202.75 69.4583 203 71.1667 203.5 71.875C204 72.5833 205.104 72.9375 206.812 72.9375C208.812 72.9375 210.708 72.6458 212.5 72.0625V79.8125C210.042 80.3542 207.292 80.625 204.25 80.625C199.875 80.625 196.812 79.7083 195.062 77.875C193.312 76 192.438 72.6458 192.438 67.8125V55.25H185.688V48H192.438V35.8125H202.75V48ZM235.25 46.0625C240.833 46.0625 244.771 47.0833 247.062 49.125C249.396 51.125 250.562 54.4375 250.562 59.0625V80H240.938L240.812 75.5625H240.688C238.021 78.9375 234.521 80.625 230.188 80.625C227.229 80.625 224.792 79.6875 222.875 77.8125C221 75.8958 220.062 73.4167 220.062 70.375C220.062 62.625 225.812 58.75 237.312 58.75H240.25V57.9375C240.25 56.3125 239.833 55.1458 239 54.4375C238.167 53.6875 236.771 53.3125 234.812 53.3125C231.146 53.3125 226.875 54.0208 222 55.4375V48C226.458 46.7083 230.875 46.0625 235.25 46.0625ZM240.25 64.75H237.312C232.146 64.75 229.562 66.3542 229.562 69.5625C229.562 70.7292 229.896 71.6458 230.562 72.3125C231.229 72.9375 232.146 73.25 233.312 73.25C235.354 73.25 237.021 72.6042 238.312 71.3125C239.604 70.0208 240.25 68.2917 240.25 66.125V64.75ZM258.75 46.75H269V53.125H269.125C270.583 51.125 272.5 49.5625 274.875 48.4375C277.25 47.3125 279.833 46.75 282.625 46.75H283.875V54.5H282.625C278.458 54.5 275.208 55.5417 272.875 57.625C270.542 59.6667 269.375 62.4375 269.375 65.9375V80H258.75V46.75ZM306.5 48H316.938V55.25H306.5V66.75C306.5 69.4583 306.75 71.1667 307.25 71.875C307.75 72.5833 308.854 72.9375 310.562 72.9375C312.562 72.9375 314.458 72.6458 316.25 72.0625V79.8125C313.792 80.3542 311.042 80.625 308 80.625C303.625 80.625 300.562 79.7083 298.812 77.875C297.062 76 296.188 72.6458 296.188 67.8125V55.25H289.438V48H296.188V35.8125H306.5V48Z" fill="white"/>
</svg>
