<svg width="467" height="114" viewBox="0 0 467 114" fill="none" xmlns="http://www.w3.org/2000/svg">
<rect width="466.944" height="114" rx="13" fill="#B3B3B3"/>
<rect x="7" y="7" width="452" height="100" rx="6" fill="#4A4A4A"/>
<path d="M166.438 43.3125V33.25H202.375C201.5 38.0833 200.146 42.5625 198.312 46.6875C196.521 50.8125 194.542 54.5417 192.375 57.875C194.25 60.3333 196.104 62.5833 197.938 64.625C199.812 66.6667 201.417 68.25 202.75 69.375C204.125 70.4583 204.833 71.0208 204.875 71.0625V83C202.625 81.375 200.583 79.7917 198.75 78.25C196.917 76.7083 194.958 74.8542 192.875 72.6875C190.792 70.4792 188.771 68.0625 186.812 65.4375C184.271 68.5625 181.667 71.2917 179 73.625C176.375 75.9167 173.938 77.7708 171.688 79.1875C169.438 80.6042 167.625 81.625 166.25 82.25C164.875 82.9167 164.167 83.25 164.125 83.25V72.0625C167.75 70.2292 171 67.9792 173.875 65.3125C176.792 62.6458 179.521 59.625 182.062 56.25C184.604 52.875 186.938 48.5625 189.062 43.3125H166.438ZM241.625 44.125H222.75V70.25H241.625V44.125ZM251.875 80.0625H212.562V34.3125H251.875V80.0625ZM264.438 33.5H293.938V42.25L282.812 50.4375C286.604 49.6875 289.729 49.8958 292.188 51.0625C294.688 52.1875 296.625 53.9792 298 56.4375C299.375 58.8958 300.104 61.7708 300.188 65.0625C300.229 68.6042 299.396 71.7083 297.688 74.375C296.021 77 293.833 78.9583 291.125 80.25C288.458 81.5833 285.583 82.4167 282.5 82.75C279.458 83.0833 276.479 82.8333 273.562 82C271.104 81.2917 269.208 80.1458 267.875 78.5625C266.583 76.9792 265.917 74.9583 265.875 72.5C265.833 70.9583 266.188 69.3125 266.938 67.5625C267.729 65.8125 269.021 64.4792 270.812 63.5625C272.604 62.6458 275.042 62.4167 278.125 62.875C280.833 63.375 283 64.3958 284.625 65.9375C286.25 67.4792 287.542 69.3958 288.5 71.6875C289.417 70.7708 290.062 69.75 290.438 68.625C290.812 67.5 290.979 66.2708 290.938 64.9375C290.938 62.7708 290.188 61.1042 288.688 59.9375C287.229 58.7292 284.812 58.1667 281.438 58.25C278.146 58.375 275.417 58.9583 273.25 60C271.125 61 269.188 62.25 267.438 63.75L260.062 69.875V58L279.562 43.25H264.438V33.5ZM276.438 69C275.229 68.9583 274.396 69.3333 273.938 70.125C273.479 70.9167 273.458 71.7917 273.875 72.75C274.292 73.6667 275.208 74.3542 276.625 74.8125C278.083 75.1875 279.333 75.3125 280.375 75.1875C281.458 75.0625 282.021 74.9792 282.062 74.9375C281.854 73.4792 281.188 72.1875 280.062 71.0625C278.979 69.8958 277.771 69.2083 276.438 69Z" fill="white"/>
</svg>
